<svg id="Layer_1" data-name="Layer 1" xmlns="http://www.w3.org/2000/svg" xmlns:xlink="http://www.w3.org/1999/xlink" viewBox="0 0 625.1 565.16"><defs><style>.cls-1{fill:none;clip-rule:evenodd;}.cls-2{clip-path:url(#clip-path);}.cls-3{fill:#1b2f3e;}.cls-4{clip-path:url(#clip-path-2);}.cls-5{fill:#ec7497;}</style><clipPath id="clip-path" transform="translate(5 5)"><path class="cls-1" d="M29.69,96.82,455.87.92A37.81,37.81,0,0,1,501,29.48l44.67,197.4H519l-20.26-89.4L49.67,239.32,77.46,361.91,80,372.76a8.13,8.13,0,0,0,9.75,6.16l3.32-.76v26.13l-.49.15A31.55,31.55,0,0,1,55,380.72L1,142.05a37.71,37.71,0,0,1,28.7-45.22Zm3.73,70.39L482.49,65.36l-6.22-27.45a14.59,14.59,0,0,0-17.36-11L38.05,121.71a14.56,14.56,0,0,0-11,17.36C29.2,148.4,31.28,157.87,33.42,167.21Z"/></clipPath><clipPath id="clip-path-2" transform="translate(5 5)"><path class="cls-1" d="M165.34,495.49H242a5.85,5.85,0,0,0,5.81-5.81V478.13a5.84,5.84,0,0,0-5.81-5.8H165.34a5.79,5.79,0,0,0-5.81,5.8v11.55A5.85,5.85,0,0,0,165.34,495.49Zm106.75,0H348.7a5.85,5.85,0,0,0,5.81-5.81V478.13a5.84,5.84,0,0,0-5.81-5.8H272.09a5.78,5.78,0,0,0-5.8,5.8v11.55A5.84,5.84,0,0,0,272.09,495.49Zm106.76,0h76.61a5.84,5.84,0,0,0,5.8-5.81V478.13a5.83,5.83,0,0,0-5.8-5.8H378.85a5.79,5.79,0,0,0-5.81,5.8v11.55A5.85,5.85,0,0,0,378.85,495.49Zm106.82,0h76.54a5.85,5.85,0,0,0,5.81-5.81V478.07a5.84,5.84,0,0,0-5.81-5.81H485.67a5.86,5.86,0,0,0-5.88,5.81v11.61A5.86,5.86,0,0,0,485.67,495.49Zm82.42-151.56v-50a5.75,5.75,0,0,0-5.81-5.8H450.48a5.84,5.84,0,0,0-5.81,5.8v50a5.85,5.85,0,0,0,5.81,5.81h111.8A5.85,5.85,0,0,0,568.09,343.93ZM140.31,234h437a37.92,37.92,0,0,1,37.82,37.82V517.41a37.9,37.9,0,0,1-37.82,37.75h-437a37.8,37.8,0,0,1-37.75-37.75V271.82A37.86,37.86,0,0,1,140.31,234Z"/></clipPath></defs><title>cards</title><g class="cls-2"><rect class="cls-3" width="555.69" height="415.2"/></g><g class="cls-4"><rect class="cls-5" x="102.56" y="234" width="522.54" height="331.16"/></g></svg>