<?xml version="1.0" encoding="utf-8"?>
<!-- Generator: Adobe Illustrator 23.0.1, SVG Export Plug-In . SVG Version: 6.00 Build 0)  -->
<svg version="1.1" id="Layer_1" xmlns="http://www.w3.org/2000/svg" xmlns:xlink="http://www.w3.org/1999/xlink" x="0px" y="0px"
	 viewBox="0 0 88 88" style="enable-background:new 0 0 88 88;" xml:space="preserve">
<title>clouse</title>
<desc>Created with Sketch.</desc>
<g id="Page-1">
	<g id="clouse">
		<path d="M56.1,44l30.2-30.2c1.2-1.2,1.2-3,0-4.2l-7.9-8c-1.2-1.2-3-1.2-4.2,0L44,31.9L13.8,1.6c-1.2-1.2-3-1.2-4.2,0l-7.9,8
			c-1.2,1.2-1.2,3,0,4.2L31.9,44L1.6,74.2c-1.2,1.2-1.2,3,0,4.2l7.9,7.9c1.2,1.2,3,1.2,4.2,0L44,56.1l30.2,30.2c1.2,1.2,3,1.2,4.2,0
			l7.9-7.9c1.2-1.2,1.2-3,0-4.2L56.1,44L56.1,44z"/>
	</g>
</g>
</svg>
