<?xml version="1.0" encoding="utf-8"?>
<!-- Generator: Adobe Illustrator 22.1.0, SVG Export Plug-In . SVG Version: 6.00 Build 0)  -->
<svg version="1.1" id="Layer_1" xmlns="http://www.w3.org/2000/svg" xmlns:xlink="http://www.w3.org/1999/xlink" x="0px" y="0px"
	 viewBox="0 0 45.5 48.9" style="enable-background:new 0 0 45.5 48.9;" xml:space="preserve">
<style type="text/css">
	.st0{clip-path:url(#SVGID_2_);}
	.st1{fill:#1B2F3E;}
	.st2{clip-path:url(#SVGID_4_);}
	.st3{fill:#EC7497;}
</style>
<title>delivery</title>
<g>
	<defs>
		<path id="SVGID_1_" d="M22,45.8L22,45.8c2.1,0,3.8-1.7,3.8-3.8c0-2.1-1.7-3.8-3.8-3.8c-2.1,0-3.8,1.7-3.8,3.8
			C18.2,44,19.9,45.7,22,45.8L22,45.8z M26.6,36.8c2.8,2.6,3,6.9,0.5,9.7s-6.9,3-9.7,0.5s-3-6.9-0.5-9.7c2.3-2.5,6-3,8.8-1.2
			C26,36.4,26.3,36.6,26.6,36.8z M21.6,32.1c-1,0-2,0.2-2.9,0.6C15.4,16.5,13.8,9.4,12.3,3H1.5C0.7,3,0,2.3,0,1.5S0.7,0,1.5,0h12
			c0.7,0,1.3,0.5,1.5,1.2C16.6,7.9,18.1,14.8,21.6,32.1L21.6,32.1z M42.7,36.4L42.7,36.4c0.8-0.2,1.6,0.4,1.8,1.2
			c0.1,0.3,0,0.6-0.1,0.8c-0.2,0.5-0.6,0.9-1.1,1l-11.4,2.2c0-1-0.2-2-0.6-3L42.7,36.4z"/>
	</defs>
	<clipPath id="SVGID_2_">
		<use xlink:href="#SVGID_1_"  style="overflow:visible;"/>
	</clipPath>
	<g class="st0">
		<rect x="-5" y="-5" class="st1" width="54.4" height="58.8"/>
	</g>
</g>
<g>
	<defs>
		<path id="SVGID_3_" d="M45.5,31.6L40.8,10c-0.2-0.8-1-1.3-1.8-1.1l-17.1,3.5c-0.4,0.1-0.8,0.3-1,0.7c-0.2,0.3-0.3,0.7-0.2,1.1
			l4,18.3c2.2,0.6,4,2,5.3,3.8l14.3-2.9c0.4-0.1,0.8-0.3,1-0.7C45.5,32.4,45.6,32,45.5,31.6L45.5,31.6z"/>
	</defs>
	<clipPath id="SVGID_4_">
		<use xlink:href="#SVGID_3_"  style="overflow:visible;"/>
	</clipPath>
	<g class="st2">
		<rect x="15.7" y="3.8" class="st3" width="34.9" height="37.5"/>
	</g>
</g>
</svg>
