<?xml version="1.0" encoding="utf-8"?>
<!-- Generator: Adobe Illustrator 23.0.1, SVG Export Plug-In . SVG Version: 6.00 Build 0)  -->
<svg version="1.1" id="Layer_1" xmlns="http://www.w3.org/2000/svg" xmlns:xlink="http://www.w3.org/1999/xlink" x="0px" y="0px"
	 viewBox="0 0 81 82" style="enable-background:new 0 0 81 82;" xml:space="preserve">
<style type="text/css">
	.st0{clip-path:url(#SVGID_2_);}
</style>
<g>
	<defs>
		<path id="SVGID_1_" d="M40.2,44.9L26.8,58.3c-1.1,1.1-2.9,1.1-4,0c-1.1-1.1-1.1-2.9,0-4l13.4-13.4L22.8,27.5c-1.1-1.1-1.1-2.9,0-4
			c1.1-1.1,2.9-1.1,4,0L40.2,37l13.4-13.4c1.1-1.1,2.9-1.1,4,0c1.1,1.1,1.1,2.9,0,4L44.2,40.9l13.4,13.4c1.1,1.1,1.1,2.9,0,4
			c-1.1,1.1-2.9,1.1-4,0L40.2,44.9z M40.4,6.2C21.2,6.2,5.5,21.9,5.5,41.1S21.1,76,40.4,76s34.9-15.7,34.9-34.9
			C75.3,21.8,59.6,6.2,40.4,6.2z M40.4,81.5C18.1,81.5,0,63.4,0,41.1S18.1,0.7,40.4,0.7s40.4,18.1,40.4,40.4S62.7,81.5,40.4,81.5z"
			/>
	</defs>
	<clipPath id="SVGID_2_">
		<use xlink:href="#SVGID_1_"  style="overflow:visible;"/>
	</clipPath>
	<rect fill="#9d9d9d" x="-5" y="-4.3" class="st0" width="90.8" height="90.8"/>
</g>
</svg>
