<?xml version="1.0" encoding="utf-8"?>
<!-- Generator: Adobe Illustrator 23.0.1, SVG Export Plug-In . SVG Version: 6.00 Build 0)  -->
<svg version="1.1" id="Layer_1" xmlns="http://www.w3.org/2000/svg" xmlns:xlink="http://www.w3.org/1999/xlink" x="0px" y="0px"
	 viewBox="0 0 14 14" style="enable-background:new 0 0 14 14;" xml:space="preserve">
<style type="text/css">
	.st0{clip-path:url(#SVGID_2_);}
</style>
<g>
	<defs>
		<path id="SVGID_1_" d="M13.5,7L13.5,7c-0.1-0.7-0.5-1.4-1.3-1.8L3.7,1C3.3,0.8,3,0.7,2.6,0.7C2.2,0.7,1.8,0.8,1.5,1l0,0v0
			c-0.6,0.4-1,1.1-1,2v8c0,0.9,0.4,1.6,1,2v0l0,0c0.3,0.2,0.7,0.3,1.1,0.3c0.4,0,0.8-0.1,1.2-0.3l8.4-4.2C13,8.4,13.4,7.7,13.5,7
			L13.5,7z"/>
	</defs>
	<clipPath id="SVGID_2_">
		<use xlink:href="#SVGID_1_"  style="overflow:visible;"/>
	</clipPath>
	<rect fill="#ffffff" x="-4.5" y="-4.3" class="st0" width="23" height="22.6"/>
</g>
</svg>
