<?xml version="1.0" encoding="utf-8"?>
<!-- Generator: Adobe Illustrator 22.1.0, SVG Export Plug-In . SVG Version: 6.00 Build 0)  -->
<svg version="1.1" id="Layer_1" xmlns="http://www.w3.org/2000/svg" xmlns:xlink="http://www.w3.org/1999/xlink" x="0px" y="0px"
	 viewBox="0 0 202 221" style="enable-background:new 0 0 202 221;" xml:space="preserve">
<style type="text/css">
	.st0{clip-path:url(#SVGID_2_);}
	.st1{fill:#757B7F;}
	.st2{clip-path:url(#SVGID_4_);}
	.st3{fill:#E9698F;}
	.st4{clip-path:url(#SVGID_6_);}
	.st5{clip-path:url(#SVGID_8_);}
	.st6{clip-path:url(#SVGID_10_);}
	.st7{clip-path:url(#SVGID_12_);}
	.st8{clip-path:url(#SVGID_14_);}
	.st9{clip-path:url(#SVGID_16_);}
	.st10{clip-path:url(#SVGID_18_);}
	.st11{clip-path:url(#SVGID_20_);}
	.st12{clip-path:url(#SVGID_22_);}
	.st13{clip-path:url(#SVGID_24_);}
	.st14{clip-path:url(#SVGID_26_);}
</style>
<title>t-shirt</title>
<g>
	<defs>
		<path id="SVGID_1_" d="M171.8,105.7c-2.6,0-5.2-0.3-7.8-0.8c0.1-0.6,0.3-1.8,0.5-3.6c0.1,0.1,0.2,0.2,0.4,0.3
			c2.3,0.4,4.6,0.7,6.9,0.7c9.3,0,18.4-3.6,26.5-10.5c0.5,0.9,0.9,1.6,1.2,2C192.2,101.3,182.3,105.6,171.8,105.7z M163.3,203.3
			c-5.4,2.9-21.7,10-52.3,10c-30.4,0-46-7-51.3-9.9c8.9-40.8,0.7-96.9,0.7-97.5c0-0.2-0.1-0.3-0.2-0.5c0-0.1,0.1-0.1,0.1-0.2
			c-1.2-8.5-2.8-17-4.8-25.3c-0.1-0.4-0.4-0.6-0.8-0.6s-0.6,0.4-0.6,0.8c0,0,0,0.1,0,0.1c2,7.7,3.3,15.4,4.1,20.2
			c-0.1-0.1-0.2-0.1-0.4-0.1c-2.2,0.4-4.4,0.7-6.6,0.7c-9.7,0-16.2-2.7-25.5-10.7c-0.1,0-0.1,0-0.2-0.1c3.6-6.8,10.2-20.5,11.5-33.1
			s7.4-20.2,18.6-23.3c4.4-1.2,14.1-5.1,21.2-8.1c3,14.9,17.6,26,34.6,26s31.7-11.1,34.6-26.1c7.1,3,16.9,7,21.3,8.2
			c11.3,3.1,17.4,10.7,18.6,23.3c1.3,12.9,8.1,26.8,11.7,33.5c-7.9,6.8-16.8,10.4-25.9,10.4c-2.2,0-4.4-0.2-6.6-0.7
			c-0.2,0-0.4,0-0.5,0.1c0.8-4.8,2.1-12.5,4.1-20.2c0.1-0.4-0.2-0.7-0.6-0.8c-0.3,0-0.6,0.1-0.7,0.4c-2.1,8.3-3.7,16.8-4.8,25.3
			c0,0.1,0,0.3,0.1,0.4c0,0.1-0.1,0.2-0.1,0.3C162.6,106.4,154.4,162.4,163.3,203.3L163.3,203.3z M111,217.8
			c-33.3,0-49-8.6-52.2-10.5c0.2-0.9,0.4-1.7,0.6-2.6c5.7,3.1,21.5,9.9,51.6,9.9c30.3,0,46.8-6.9,52.6-10c0.2,0.9,0.4,1.8,0.6,2.6
			C160.9,209.2,144.3,217.8,111,217.8z M51.2,105.7c-10.4-0.1-20.4-4.4-27.7-11.9c0.3-0.5,0.8-1.4,1.4-2.5
			c9.6,8.2,16.2,10.9,26.3,10.9c2.3,0,4.6-0.2,6.9-0.7c0.1,0,0.2-0.1,0.3-0.2c0.3,1.7,0.4,3,0.5,3.5
			C56.3,105.4,53.8,105.7,51.2,105.7z M83.7,22.7C85.2,35.3,97.1,45,111.5,45s26.3-9.7,27.9-22.3l5.5,2.3
			c-2.7,14.5-16.8,25.3-33.4,25.3S80.7,39.6,78,25.1C80.4,24.1,82.4,23.3,83.7,22.7L83.7,22.7z M201.8,93.4
			c-0.1-0.2-11.9-19.7-13.6-36.5c-1.4-13.5-8.2-21.9-20.2-25.2c-7.1-1.9-29-11.4-29.2-11.5c-0.3-0.1-0.7-0.1-1,0.1
			c-0.3,0.2-0.5,0.5-0.5,0.9c-0.6,12.2-12,21.7-25.8,21.7S86.4,33.2,85.7,21c0-0.4-0.2-0.7-0.5-0.9c-0.3-0.2-0.7-0.2-1-0.1
			C84,20.2,62.1,29.7,55,31.6c-12,3.3-18.9,11.8-20.2,25.2c-1.7,16.8-13.5,36.3-13.6,36.5c-0.2,0.4-0.2,0.9,0.1,1.3
			c7.7,8.4,18.5,13.2,29.9,13.2c2.4,0,4.8-0.2,7.2-0.6c1.2,8.5,7.8,62.6-1.9,100.2c-0.1,0.4,0,0.9,0.4,1.2
			c0.6,0.5,15.9,11.4,54.1,11.4s54.4-10.9,55.1-11.3c0.4-0.3,0.6-0.7,0.4-1.2c-9.7-37.6-3-91.7-1.9-100.2c2.4,0.4,4.7,0.6,7.1,0.6
			l0,0c11.4,0,22.2-4.8,29.9-13.2C202,94.3,202.1,93.8,201.8,93.4z"/>
	</defs>
	<clipPath id="SVGID_2_">
		<use xlink:href="#SVGID_1_"  style="overflow:visible;"/>
	</clipPath>
	<g class="st0">
		<rect x="16" y="15" class="st1" width="191" height="210"/>
	</g>
</g>
<g>
	<defs>
		<rect id="SVGID_3_" x="20" y="20" width="1" height="200"/>
	</defs>
	<clipPath id="SVGID_4_">
		<use xlink:href="#SVGID_3_"  style="overflow:visible;"/>
	</clipPath>
	<g class="st2">
		<rect x="15" y="15" class="st3" width="11" height="210"/>
	</g>
</g>
<g>
	<defs>
		<rect id="SVGID_5_" x="42" width="1" height="39.5"/>
	</defs>
	<clipPath id="SVGID_6_">
		<use xlink:href="#SVGID_5_"  style="overflow:visible;"/>
	</clipPath>
	<g class="st4">
		<rect x="37" y="-5" class="st3" width="11" height="49.5"/>
	</g>
</g>
<g>
	<defs>
		<rect id="SVGID_7_" x="178" width="1" height="37.5"/>
	</defs>
	<clipPath id="SVGID_8_">
		<use xlink:href="#SVGID_7_"  style="overflow:visible;"/>
	</clipPath>
	<g class="st5">
		<rect x="173" y="-5" class="st3" width="11" height="47.5"/>
	</g>
</g>
<g>
	<defs>
		<rect id="SVGID_9_" x="56" y="79" width="111.4" height="1"/>
	</defs>
	<clipPath id="SVGID_10_">
		<use xlink:href="#SVGID_9_"  style="overflow:visible;"/>
	</clipPath>
	<g class="st6">
		<rect x="51" y="74" class="st3" width="121.4" height="11"/>
	</g>
</g>
<g>
	<defs>
		<rect id="SVGID_11_" y="220" width="111.4" height="1"/>
	</defs>
	<clipPath id="SVGID_12_">
		<use xlink:href="#SVGID_11_"  style="overflow:visible;"/>
	</clipPath>
	<g class="st7">
		<rect x="-5" y="215" class="st3" width="121.4" height="11"/>
	</g>
</g>
<g>
	<defs>
		<rect id="SVGID_13_" y="20" width="178.5" height="1"/>
	</defs>
	<clipPath id="SVGID_14_">
		<use xlink:href="#SVGID_13_"  style="overflow:visible;"/>
	</clipPath>
	<g class="st8">
		<rect x="-5" y="15" class="st3" width="188.5" height="11"/>
	</g>
</g>
<g>
	<defs>
		<polygon id="SVGID_15_" points="48,16 48,24 42,20 		"/>
	</defs>
	<clipPath id="SVGID_16_">
		<use xlink:href="#SVGID_15_"  style="overflow:visible;"/>
	</clipPath>
	<g class="st9">
		<rect x="37" y="11" class="st3" width="16" height="18"/>
	</g>
</g>
<g>
	<defs>
		<polygon id="SVGID_17_" points="172,16 172,24 178,20 		"/>
	</defs>
	<clipPath id="SVGID_18_">
		<use xlink:href="#SVGID_17_"  style="overflow:visible;"/>
	</clipPath>
	<g class="st10">
		<rect x="167" y="11" class="st3" width="16" height="18"/>
	</g>
</g>
<g>
	<defs>
		<polygon id="SVGID_19_" points="162,75 162,83 168,79 		"/>
	</defs>
	<clipPath id="SVGID_20_">
		<use xlink:href="#SVGID_19_"  style="overflow:visible;"/>
	</clipPath>
	<g class="st11">
		<rect x="157" y="70" class="st3" width="16" height="18"/>
	</g>
</g>
<g>
	<defs>
		<polygon id="SVGID_21_" points="17,26 25,26 21,20 		"/>
	</defs>
	<clipPath id="SVGID_22_">
		<use xlink:href="#SVGID_21_"  style="overflow:visible;"/>
	</clipPath>
	<g class="st12">
		<rect x="12" y="15" class="st3" width="18" height="16"/>
	</g>
</g>
<g>
	<defs>
		<polygon id="SVGID_23_" points="17,215 25,215 21,221 		"/>
	</defs>
	<clipPath id="SVGID_24_">
		<use xlink:href="#SVGID_23_"  style="overflow:visible;"/>
	</clipPath>
	<g class="st13">
		<rect x="12" y="210" class="st3" width="18" height="16"/>
	</g>
</g>
<g>
	<defs>
		<polygon id="SVGID_25_" points="61,75 61,83 55,79 		"/>
	</defs>
	<clipPath id="SVGID_26_">
		<use xlink:href="#SVGID_25_"  style="overflow:visible;"/>
	</clipPath>
	<g class="st14">
		<rect x="50" y="70" class="st3" width="16" height="18"/>
	</g>
</g>
</svg>
