<?xml version="1.0" encoding="utf-8"?>
<!-- Generator: Adobe Illustrator 22.1.0, SVG Export Plug-In . SVG Version: 6.00 Build 0)  -->
<svg version="1.1" id="Слой_1" xmlns="http://www.w3.org/2000/svg" xmlns:xlink="http://www.w3.org/1999/xlink" x="0px" y="0px"
	 viewBox="0 0 24 13.7" style="enable-background:new 0 0 24 13.7;" xml:space="preserve">
<title>VK icon</title>
<path fill="#ffffff" d="M11.7,13.6h1.4c0,0,0.4,0,0.7-0.3c0.2-0.2,0.2-0.6,0.2-0.6s0-1.9,0.9-2.2c0.9-0.3,2,1.9,3.2,2.7c0.9,0.6,1.6,0.5,1.6,0.5
	l3.2,0c0,0,1.7-0.1,0.9-1.4c-0.1-0.1-0.5-1-2.4-2.8c-2-1.9-1.7-1.6,0.7-4.8c1.5-2,2.1-3.2,1.9-3.7c-0.2-0.5-1.3-0.4-1.3-0.4l-3.6,0
	c0,0-0.3,0-0.5,0.1c-0.2,0.1-0.3,0.4-0.3,0.4S17.8,2.6,17,3.9c-1.6,2.7-2.3,2.9-2.5,2.7C13.9,6.2,14,5.1,14,4.2c0-2.6,0.4-3.8-0.8-4
	C12.8,0.1,12.6,0,11.5,0c-1.3,0-2.4,0-3,0.3C8.1,0.5,7.8,1,8,1c0.2,0,0.8,0.1,1.1,0.5C9.5,2,9.4,3.2,9.4,3.2s0.2,3.1-0.5,3.5
	C8.4,6.9,7.8,6.4,6.3,3.9C5.6,2.6,5.1,1.2,5.1,1.2S5,1,4.8,0.8C4.5,0.7,4.2,0.6,4.2,0.6l-3.4,0c0,0-0.5,0-0.7,0.2
	c-0.2,0.2,0,0.6,0,0.6s2.7,6.3,5.7,9.5C8.6,13.8,11.8,13.7,11.7,13.6C11.8,13.7,11.7,13.6,11.7,13.6z"/>
</svg>
